<?xml version="1.0" encoding="UTF-8"?>
<!DOCTYPE svg PUBLIC "-//W3C//DTD SVG 1.1//EN" "http://www.w3.org/Graphics/SVG/1.1/DTD/svg11.dtd">
<!-- Creator: CorelDRAW X7 -->
<svg xmlns="http://www.w3.org/2000/svg" xml:space="preserve" width="148.602mm" height="38.2596mm" version="1.1" style="shape-rendering:geometricPrecision; text-rendering:geometricPrecision; image-rendering:optimizeQuality; fill-rule:evenodd; clip-rule:evenodd"
viewBox="0 0 14860 3826"
 xmlns:xlink="http://www.w3.org/1999/xlink">
 <defs>
  <style type="text/css">
   <![CDATA[
    .fil1 {fill:#EF7F1A}
    .fil0 {fill:#2B2A29;fill-rule:nonzero}
   ]]>
  </style>
 </defs>
 <g id="Layer_x0020_1">
  <metadata id="CorelCorpID_0Corel-Layer"/>
  <g id="_2426645481408">
   <path class="fil0" d="M14503 1080l47 0c31,0 50,-1 58,-4 7,-3 13,-8 18,-14 4,-7 6,-15 6,-25 0,-12 -3,-21 -8,-28 -6,-7 -14,-11 -25,-13 -5,-1 -20,-1 -46,-1l-50 0 0 85zm-65 194l0 -336 135 0c34,0 59,3 74,9 16,6 28,17 37,32 10,16 14,33 14,53 0,25 -7,46 -21,63 -14,16 -35,26 -63,31 14,8 26,18 35,28 9,10 21,28 36,54l39 66 -77 0 -46 -73c-17,-26 -28,-43 -34,-50 -6,-6 -12,-11 -19,-14 -7,-2 -18,-3 -32,-3l-13 0 0 140 -65 0z"/>
   <path class="fil0" d="M14553 1373c-140,0 -254,-121 -254,-269 0,-149 114,-269 254,-269 141,0 255,120 255,269 0,148 -114,269 -255,269zm0 -594c-169,0 -307,146 -307,325 0,179 138,324 307,324 170,0 307,-145 307,-324 0,-179 -137,-325 -307,-325z"/>
   <path class="fil1" d="M1468 2086l586 0c155,0 296,-49 423,-147 43,-34 83,-72 116,-115 100,-128 150,-269 150,-425l0 -1272c-217,0 -392,175 -392,392l0 894c0,72 -29,137 -87,195 -58,59 -123,88 -196,88l-106 0 0 -1009c0,-155 -49,-296 -147,-423 -34,-43 -73,-82 -116,-115 -127,-99 -268,-149 -424,-149l-585 0c-155,0 -296,49 -424,147 -43,33 -82,72 -116,115 -100,127 -150,269 -150,425l0 1272c217,0 393,-176 393,-393l0 -893c0,-72 29,-137 87,-196 57,-58 123,-87 196,-87l106 0 0 1009c0,155 49,296 147,422 33,44 72,83 115,116 127,99 269,149 424,149zm-209 -477c-57,-58 -85,-123 -85,-196l0 -894c0,-45 -8,-89 -22,-129l137 0c74,0 139,29 195,87 57,58 85,123 85,196l0 893c0,46 8,89 22,130l-136 0c-74,0 -139,-29 -196,-87z"/>
   <path class="fil1" d="M12593 2240l-142 0 0 1226 142 0 0 -1226zm-1087 0l-143 0 0 1036c1,58 24,106 70,145 45,39 118,58 217,58 51,0 94,-5 130,-16 36,-10 66,-25 90,-44 23,-18 41,-40 51,-65 11,-25 16,-51 16,-79l0 -41 0 -341 0 -41c0,-43 -11,-82 -33,-117 -22,-34 -53,-59 -93,-74 -21,-7 -44,-15 -70,-24 -26,-9 -51,-17 -75,-26 -24,-8 -45,-16 -63,-23 -18,-6 -30,-10 -34,-12 -5,-2 -11,-5 -18,-9 -7,-4 -14,-10 -21,-18 -7,-7 -13,-16 -17,-27 -5,-10 -7,-22 -7,-35l0 -31 0 -216zm-2057 534l0 0 0 692 142 0 0 -649 0 -19c0,-9 1,-19 5,-31 3,-12 10,-23 21,-33 11,-10 26,-19 46,-26 19,-8 45,-11 76,-11 32,0 57,3 76,11 18,7 32,16 42,27 10,10 16,22 19,33 2,12 4,23 4,33l0 16 0 649 144 0 0 -649 0 -19c0,-9 1,-19 5,-31 3,-12 10,-23 21,-33 10,-10 26,-19 45,-26 20,-8 46,-11 77,-11 32,0 57,3 76,11 18,7 32,16 42,27 9,10 16,22 18,33 3,12 5,23 5,33l0 16 0 649 143 0 0 -675 0 -17c0,-12 -2,-30 -6,-53 -5,-23 -17,-46 -36,-68 -19,-23 -48,-42 -86,-59 -39,-16 -91,-24 -159,-24 -54,0 -98,5 -133,16 -34,11 -62,24 -83,40 -22,-16 -50,-29 -84,-40 -35,-11 -79,-16 -133,-16 -68,0 -121,8 -159,24 -38,17 -67,36 -86,59 -19,22 -31,45 -36,67 -4,22 -6,40 -6,54zm2057 119l0 -10 0 -210c2,12 8,21 16,27 9,6 17,10 25,12 18,5 36,12 56,19 19,8 37,14 54,20 20,6 39,13 57,20 15,6 28,13 41,24 10,9 19,20 27,34 8,14 12,32 12,54l0 10 1 0 0 350c-1,29 -12,55 -33,77 -21,22 -58,33 -112,33 -28,0 -52,-4 -70,-10 -19,-6 -34,-14 -44,-24 -11,-10 -19,-22 -23,-34 -5,-12 -7,-24 -7,-36l0 2 0 -358zm594 -480l142 0 0 -171 -142 0 0 171zm1558 173c-36,11 -65,25 -89,44 -24,18 -41,40 -52,65 -10,25 -16,51 -16,79l0 41 144 0c0,-33 10,-61 30,-84 19,-23 57,-34 114,-34 28,0 51,3 70,9 18,6 33,14 45,24 11,10 19,22 23,33 5,12 7,24 7,35l0 32c0,14 -3,25 -8,36 -5,10 -11,19 -17,27 -7,8 -14,14 -21,17 -8,4 -14,7 -18,10 -5,1 -16,5 -34,12 -18,6 -39,14 -63,22 -25,9 -50,18 -76,27 -26,9 -49,16 -69,23 -41,15 -72,40 -94,75 -22,35 -33,73 -33,116l0 80c0,20 4,42 11,67 8,24 22,46 43,66 22,21 51,38 88,51 37,14 86,20 146,20 59,0 108,-6 145,-20 37,-13 67,-30 88,-51 21,-20 36,-42 43,-66 7,-25 11,-47 11,-67l0 -49 0 -371 0 -81c0,-58 -23,-107 -69,-146 -46,-39 -119,-58 -218,-58 -51,0 -94,5 -131,16zm17 735c-20,-21 -30,-52 -30,-95 0,-22 4,-39 13,-53 8,-15 17,-26 27,-35 13,-10 26,-18 39,-24 18,-7 38,-13 58,-20 17,-6 35,-12 55,-20 20,-7 38,-13 55,-19 8,-2 16,-6 25,-12 9,-5 15,-14 17,-25l0 208c0,40 -10,72 -30,94 -21,22 -59,33 -115,33 -56,0 -93,-11 -114,-32zm-2925 -727c-38,17 -67,36 -86,59 -19,22 -31,45 -35,68 -5,23 -7,41 -7,53l0 482 0 19c0,12 2,30 7,53 4,23 16,46 35,68 19,23 48,43 86,59 39,16 92,24 159,24 68,0 121,-8 159,-24 39,-16 67,-36 87,-59 19,-22 31,-45 35,-67 5,-23 7,-41 7,-54l0 -27 0 -474c0,-13 -2,-31 -7,-54 -4,-22 -16,-45 -35,-67 -20,-23 -48,-42 -87,-59 -38,-16 -91,-24 -159,-24 -67,0 -120,8 -159,24zm81 748c-19,-8 -33,-17 -43,-27 -10,-11 -17,-23 -20,-35 -3,-13 -4,-23 -4,-32l0 -17 0 -413 0 -17c0,-9 1,-19 4,-32 3,-12 10,-24 20,-34 10,-11 24,-20 43,-27 18,-8 43,-11 73,-11 33,0 59,3 78,11 19,7 34,16 45,26 11,10 18,21 21,33 3,12 5,23 5,33l0 18 0 413 0 18c0,11 -2,22 -5,33 -3,12 -10,23 -21,33 -11,10 -26,19 -45,27 -19,7 -45,11 -78,11 -30,0 -55,-4 -73,-11zm1269 124l142 0 0 -883 -142 0 0 883zm1092 -881l0 575 0 8 0 210c-2,-12 -8,-21 -16,-27 -9,-6 -17,-10 -26,-12 -17,-6 -36,-12 -55,-19 -20,-8 -38,-14 -55,-20 -21,-7 -40,-13 -58,-20 -13,-6 -26,-14 -39,-24 -10,-9 -19,-20 -28,-34 -8,-15 -12,-32 -12,-54l0 -8 0 -575 -144 0 0 575 0 39c0,43 11,81 33,116 22,35 53,60 94,75 20,6 43,14 70,23 26,9 52,18 75,27 24,8 45,16 63,22 18,7 29,11 34,12 4,3 10,6 17,10 8,4 15,9 21,17 7,8 13,17 18,27 5,11 8,22 8,36l0 30 0 2c0,10 -2,21 -5,33 -4,12 -11,23 -21,33 -11,10 -26,19 -45,26 -19,7 -45,11 -78,11 -30,0 -55,-4 -73,-11 -19,-7 -33,-17 -44,-28 -10,-11 -16,-23 -19,-34 -3,-12 -4,-23 -4,-33l0 -16 -144 0 0 44c0,13 2,31 7,54 4,23 16,46 35,68 19,23 48,42 86,58 39,17 92,25 159,25 68,0 121,-8 159,-25 39,-16 67,-35 87,-58 19,-22 31,-45 35,-68 5,-22 7,-40 7,-54l0 -23 2 0 0 -1013 -144 0z"/>
   <path class="fil0" d="M7087 1477c0,-165 62,-325 178,-442 115,-117 254,-175 415,-175l610 0c133,0 247,45 343,137 106,101 168,242 168,389 0,93 -23,180 -68,260 -46,81 -109,146 -190,194 -81,48 -169,72 -265,72l-744 0c0,-198 161,-358 358,-358l393 0c50,0 91,-16 123,-49 32,-32 48,-72 48,-119 0,-46 -16,-86 -47,-119 -31,-33 -68,-50 -112,-50l-706 0c-47,0 -87,19 -120,56 -25,29 -38,66 -38,105l0 871c0,191 -155,345 -346,345l0 -1117z"/>
   <path class="fil0" d="M8959 1576l0 -811 335 0 0 1147c-185,0 -335,-150 -335,-336zm0 -914l0 -358c185,0 335,150 335,336l0 22 -335 0z"/>
   <path class="fil0" d="M9449 1301l0 -782c0,-191 154,-345 345,-345l0 1139c0,441 699,60 699,599l-433 0c-115,0 -229,-29 -327,-91 -179,-113 -284,-308 -284,-520z"/>
   <path class="fil0" d="M6849 867l-1121 0c-147,0 -270,50 -372,150 -102,101 -152,222 -152,364 0,96 24,185 72,266 48,81 112,145 192,191 80,46 166,69 258,69l707 0c0,-197 -23,-328 -200,-348l-514 -10c-44,0 -84,-15 -118,-47 -35,-31 -52,-72 -52,-121 0,-43 17,-80 52,-110 35,-31 74,-46 118,-46l784 0 0 682 346 0 0 -481 0 -45 0 -514z"/>
   <path class="fil0" d="M4128 1913c-1085,0 -1083,-1741 0,-1741l928 0c0,654 -898,205 -1251,491 -211,171 -214,586 0,760 344,278 1251,-157 1251,490l-928 0z"/>
   <path class="fil0" d="M10807 1341l0 45c0,141 107,256 237,256l678 0c131,0 237,-115 237,-256l0 -45c0,-141 -106,-256 -237,-256l-678 0c-130,0 -237,115 -237,256zm191 -562l771 0c273,0 496,242 496,537l0 95c0,295 -223,536 -496,536l-771 0c-273,0 -497,-241 -497,-536l0 -95c0,-295 224,-537 497,-537z"/>
   <path class="fil0" d="M12432 780l1283 0c0,0 415,-40 415,258l0 884c0,0 -293,140 -310,-248l0 -419c0,-59 -49,-108 -109,-108l-986 0 0 799c0,0 -299,35 -293,-293l0 -873z"/>
  </g>
 </g>
</svg>
